HIERARCHY
ROOT joint_Root
{
	OFFSET 0.0 0.0 0.0
	CHANNELS 6 Xposition Yposition Zposition Zrotation Xrotation Yrotation 
	JOINT Hips
	{
		OFFSET -17.1583 93.1646 452.98
		CHANNELS 6 Xposition Yposition Zposition Zrotation Xrotation Yrotation 
		JOINT Spine
		{
			OFFSET 15.7357 0.0 0.0
			CHANNELS 6 Xposition Yposition Zposition Zrotation Xrotation Yrotation 
			JOINT Chest
			{
				OFFSET 8.98455 -0.406207 0.0
				CHANNELS 6 Xposition Yposition Zposition Zrotation Xrotation Yrotation 
				JOINT Neck
				{
					OFFSET 16.3773 0.0 0.0
					CHANNELS 6 Xposition Yposition Zposition Zrotation Xrotation Yrotation 
					JOINT Head
					{
						OFFSET 6.45672 0.0 0.0
						CHANNELS 6 Xposition Yposition Zposition Zrotation Xrotation Yrotation 
						End Site
						{
							OFFSET 0.0 0.0 0.0
						}
					}
				}
				JOINT Shoulder_L
				{
					OFFSET 12.9942 -0.242716 4.98039
					CHANNELS 6 Xposition Yposition Zposition Zrotation Xrotation Yrotation 
					JOINT UpperArm_L
					{
						OFFSET 5.34809 0.0 0.0
						CHANNELS 6 Xposition Yposition Zposition Zrotation Xrotation Yrotation 
						JOINT LowerArm_L
						{
							OFFSET 24.3286 1.87007e-05 0.0
							CHANNELS 6 Xposition Yposition Zposition Zrotation Xrotation Yrotation 
							JOINT Hand_L
							{
								OFFSET 22.2916 0.0 0.0
								CHANNELS 6 Xposition Yposition Zposition Zrotation Xrotation Yrotation 
								End Site
								{
									OFFSET 0.0 0.0 0.0
								}
							}
						}
					}
				}
				JOINT Shoulder_R
				{
					OFFSET 12.9945 -0.242716 -4.98039
					CHANNELS 6 Xposition Yposition Zposition Zrotation Xrotation Yrotation 
					JOINT UpperArm_R
					{
						OFFSET -5.34813 0.0 0.0
						CHANNELS 6 Xposition Yposition Zposition Zrotation Xrotation Yrotation 
						JOINT LowerArm_R
						{
							OFFSET -24.3289 0.000322201 0.0
							CHANNELS 6 Xposition Yposition Zposition Zrotation Xrotation Yrotation 
							JOINT Hand_R
							{
								OFFSET -22.2915 -0.000108084 0.0
								CHANNELS 6 Xposition Yposition Zposition Zrotation Xrotation Yrotation 
								End Site
								{
									OFFSET 0.0 0.0 0.0
								}
							}
						}
					}
				}
			}
		}
		JOINT UpperLeg_L
		{
			OFFSET -2.19248 -6.46944 0.0
			CHANNELS 6 Xposition Yposition Zposition Zrotation Xrotation Yrotation 
			JOINT LowerLeg_L
			{
				OFFSET 39.0811 0.0 -1.23785e-05
				CHANNELS 6 Xposition Yposition Zposition Zrotation Xrotation Yrotation 
				JOINT Foot_L
				{
					OFFSET 40.9854 0.0 -1.26872e-05
					CHANNELS 6 Xposition Yposition Zposition Zrotation Xrotation Yrotation 
					JOINT Toes_L
					{
						OFFSET 11.7543 0.0 0.0
						CHANNELS 6 Xposition Yposition Zposition Zrotation Xrotation Yrotation 
						End Site
						{
							OFFSET 0.0 0.0 0.0
						}
					}
				}
			}
		}
		JOINT UpperLeg_R
		{
			OFFSET -2.19251 6.46944 0.0
			CHANNELS 6 Xposition Yposition Zposition Zrotation Xrotation Yrotation 
			JOINT LowerLeg_R
			{
				OFFSET -39.0811 -0.00228153 -0.0401928
				CHANNELS 6 Xposition Yposition Zposition Zrotation Xrotation Yrotation 
				JOINT Foot_R
				{
					OFFSET -40.9854 0.0 0.0
					CHANNELS 6 Xposition Yposition Zposition Zrotation Xrotation Yrotation 
					JOINT Toes_R
					{
						OFFSET -11.7543 0.0 0.0
						CHANNELS 6 Xposition Yposition Zposition Zrotation Xrotation Yrotation 
						End Site
						{
							OFFSET 0.0 0.0 0.0
						}
					}
				}
			}
		}
	}
}
MOTION
Frames:	8
Frame Time:	0.0333333
0.000000 0.000000 0.000000 0.000000 0.000000 -0.000000 -3.174000 93.943400 0.438885 87.603000 2.267670 -8.431250 15.735700 0.000005 -0.000001 -71.306000 89.006800 72.926400 8.984550 -0.406207 -0.000000 -9.633790 -0.879807 3.176460 16.377300 -0.000001 -0.000001 -9.978750 -0.499526 2.799280 6.456720 -0.000001 -0.000000 0.042306 0.943278 2.635020 12.994200 -0.242716 4.980390 -87.379900 -5.067460 -62.611900 5.348090 -0.000007 -0.000001 -79.919100 -62.709100 -121.280000 24.328600 0.000019 0.000005 0.000044 -18.549600 0.000001 22.291600 -0.000001 0.000005 39.178600 4.611060 14.724000 12.994500 -0.242716 -4.980390 94.600200 -7.928150 -59.742700 -5.348130 -0.000001 -0.000004 -72.362400 -60.616100 -122.970000 -24.328900 0.000322 -0.000009 -0.001056 -18.434100 -0.000103 -22.291500 -0.000108 -0.000004 48.873600 5.382820 -2.387150 -2.192480 -6.469440 -0.000000 -170.790000 -6.131180 -2.940260 39.081100 -0.000007 -0.000012 -0.000001 0.007892 0.000006 40.985400 -0.000006 -0.000013 -11.550400 14.262900 -58.571800 11.754300 -0.000000 0.000003 -0.000454 0.174947 -9.480620 -2.192510 6.469440 -0.000001 -179.028000 11.334700 177.525000 -39.081100 -0.002282 -0.040193 0.004319 -0.052369 1.056390 -40.985400 0.000008 0.000006 -8.293790 5.831920 -61.081100 -11.754300 -0.000006 -0.000006 -0.010471 0.274790 -5.408430
0.000000 0.000000 0.000000 0.000000 0.000000 -0.000000 -3.176750 93.933200 0.409991 87.591800 2.280410 -8.338310 15.735700 0.000005 -0.000001 -70.885000 89.027300 72.514200 8.984550 -0.406207 -0.000000 -9.590080 -0.880894 3.194450 16.377300 -0.000001 -0.000001 -9.856110 -0.474687 2.803330 6.456720 -0.000001 -0.000000 0.036069 0.984139 2.611690 12.994200 -0.242716 4.980390 -87.397300 -5.031990 -62.604700 5.348090 -0.000007 -0.000001 -79.961400 -62.625900 -121.323000 24.328600 0.000019 0.000005 0.000043 -18.490900 0.000001 22.291600 -0.000001 0.000005 39.288800 4.604360 14.839600 12.994500 -0.242716 -4.980390 94.591500 -7.893560 -59.682100 -5.348130 -0.000001 -0.000004 -72.626800 -60.490300 -123.235000 -24.328900 0.000322 -0.000009 -0.001058 -18.273600 -0.000102 -22.291500 -0.000108 -0.000004 48.823800 5.380810 -2.324280 -2.192480 -6.469440 -0.000000 -170.766000 -6.115090 -2.867920 39.081100 -0.000007 -0.000012 -0.000001 0.006873 0.000007 40.985400 -0.000006 -0.000013 -11.577500 14.267000 -58.588700 11.754300 -0.000000 0.000003 -0.000488 0.175467 -9.459490 -2.192510 6.469440 -0.000001 -179.023000 11.370400 177.556000 -39.081100 -0.002282 -0.040193 0.004428 -0.053279 1.155300 -40.985400 0.000008 0.000006 -8.321050 5.834640 -61.147700 -11.754300 -0.000006 -0.000006 -0.010312 0.273622 -5.456220
0.000000 0.000000 0.000000 0.000000 0.000000 -0.000000 -3.171320 93.920100 0.368985 87.592500 2.261750 -8.259600 15.735700 0.000005 -0.000001 -70.436100 89.044900 72.072700 8.984550 -0.406207 -0.000000 -9.551810 -0.884097 3.209240 16.377300 -0.000001 -0.000001 -9.785430 -0.463481 2.813260 6.456720 -0.000001 -0.000000 0.054784 1.016760 2.585270 12.994200 -0.242716 4.980390 -87.409800 -5.012200 -62.625000 5.348090 -0.000007 -0.000001 -79.835600 -62.621800 -121.175000 24.328600 0.000019 0.000005 0.000052 -18.492000 0.000001 22.291600 -0.000001 0.000005 39.488600 4.603640 14.851900 12.994500 -0.242716 -4.980390 94.591100 -7.895180 -59.689400 -5.348130 -0.000001 -0.000004 -72.584800 -60.496500 -123.207000 -24.328900 0.000322 -0.000009 -0.001049 -18.562200 -0.000103 -22.291500 -0.000108 -0.000004 48.929600 5.385970 -2.487270 -2.192480 -6.469440 -0.000000 -170.752000 -5.994750 -2.806290 39.081100 -0.000007 -0.000012 -0.000001 0.004881 0.000000 40.985400 -0.000006 -0.000013 -11.637900 14.166200 -58.566100 11.754300 -0.000000 0.000003 -0.000251 0.171751 -9.610450 -2.192510 6.469440 -0.000001 -179.042000 11.395500 177.554000 -39.081100 -0.002282 -0.040193 0.004558 -0.054265 1.271720 -40.985400 0.000008 0.000006 -8.333930 5.878160 -61.198800 -11.754300 -0.000006 -0.000006 -0.010074 0.271858 -5.528360
0.000000 0.000000 0.000000 0.000000 0.000000 -0.000000 -3.160070 93.919300 0.334019 87.616600 2.269210 -8.172300 15.735700 0.000005 -0.000001 -70.106200 89.055700 71.734400 8.984550 -0.406207 -0.000000 -9.527770 -0.885435 3.192180 16.377300 -0.000001 -0.000001 -9.705300 -0.463800 2.802590 6.456720 -0.000001 -0.000000 0.036726 0.997541 2.607610 12.994200 -0.242716 4.980390 -87.413100 -5.000460 -62.600600 5.348090 -0.000007 -0.000001 -79.946900 -62.414900 -121.220000 24.328600 0.000019 0.000005 0.000043 -18.298100 0.000001 22.291600 -0.000001 0.000005 39.355600 4.605710 14.816200 12.994500 -0.242716 -4.980390 94.566100 -7.847020 -59.674300 -5.348130 -0.000001 -0.000004 -72.581300 -60.417200 -123.222000 -24.328900 0.000322 -0.000009 -0.001030 -18.562700 -0.000103 -22.291500 -0.000108 -0.000004 48.868400 5.386630 -2.509180 -2.192480 -6.469440 -0.000000 -170.785000 -5.997960 -2.742330 39.081100 -0.000007 -0.000012 -0.000001 0.006782 0.000000 40.985400 -0.000006 -0.000013 -11.507900 14.206200 -58.598900 11.754300 -0.000000 0.000003 -0.000272 0.172080 -9.597080 -2.192510 6.469440 -0.000001 -179.105000 11.233200 177.583000 -39.081100 -0.002282 -0.040193 0.004666 -0.055165 1.363400 -40.985400 0.000008 0.000006 -8.372440 5.765270 -61.311200 -11.754300 -0.000006 -0.000006 -0.010413 0.274369 -5.425640
0.000000 0.000000 0.000000 0.000000 0.000000 -0.000000 -3.148330 93.917300 0.287733 87.617200 2.275560 -8.151950 15.735700 0.000005 -0.000001 -69.759800 89.039800 71.392000 8.984550 -0.406207 -0.000000 -9.553360 -0.908055 3.198430 16.377300 -0.000001 -0.000001 -9.689350 -0.474513 2.795790 6.456720 -0.000001 -0.000000 0.079910 0.989686 2.591060 12.994200 -0.242716 4.980390 -87.412300 -5.005180 -62.614800 5.348090 -0.000007 -0.000001 -79.902000 -62.293800 -121.127000 24.328600 0.000019 0.000005 0.000043 -18.375200 0.000001 22.291600 -0.000001 0.000005 39.222700 4.608330 14.771100 12.994500 -0.242716 -4.980390 94.580600 -7.863470 -59.646700 -5.348130 -0.000001 -0.000004 -72.543900 -60.315100 -123.166000 -24.328900 0.000322 -0.000009 -0.001058 -18.462200 -0.000103 -22.291500 -0.000108 -0.000004 48.704500 5.383610 -2.412510 -2.192480 -6.469440 -0.000000 -170.784000 -5.982490 -2.753730 39.081100 -0.000007 -0.000012 -0.000001 0.005812 0.000009 40.985400 -0.000006 -0.000013 -11.590700 14.205100 -58.559200 11.754300 -0.000000 0.000003 -0.000245 0.171652 -9.614490 -2.192510 6.469440 -0.000001 -179.103000 11.200400 177.532000 -39.081100 -0.002282 -0.040193 0.004755 -0.054878 1.462970 -40.985400 0.000008 0.000006 -8.285190 5.723140 -61.385100 -11.754300 -0.000006 -0.000006 -0.010255 0.273204 -5.473320
0.000000 0.000000 0.000000 0.000000 0.000000 -0.000000 -3.132350 93.917400 0.249536 87.653400 2.287300 -8.099280 15.735700 0.000005 -0.000001 -68.996000 89.028900 70.616500 8.984550 -0.406207 -0.000000 -9.564490 -0.938111 3.172420 16.377300 -0.000001 -0.000001 -9.639730 -0.469658 2.794700 6.456720 -0.000001 -0.000000 0.033340 0.981875 2.614740 12.994200 -0.242716 4.980390 -87.403500 -5.013430 -62.574000 5.348090 -0.000007 -0.000001 -79.590000 -62.181100 -120.839000 24.328600 0.000019 0.000005 0.000042 -18.617500 0.000001 22.291600 -0.000001 0.000005 39.264300 4.610110 14.740400 12.994500 -0.242716 -4.980390 94.575100 -7.864520 -59.680000 -5.348130 -0.000001 -0.000004 -72.507000 -60.248400 -123.133000 -24.328900 0.000322 -0.000009 -0.001058 -18.550700 -0.000103 -22.291500 -0.000108 -0.000004 48.733100 5.384590 -2.443080 -2.192480 -6.469440 -0.000000 -170.844000 -6.055650 -2.722110 39.081100 -0.000007 -0.000012 -0.000001 0.005691 0.000005 40.985400 -0.000006 -0.000013 -11.548800 14.264100 -58.552800 11.754300 -0.000000 0.000003 -0.000283 0.172253 -9.590080 -2.192510 6.469440 -0.000001 -179.151000 11.180700 177.529000 -39.081100 -0.002282 -0.040193 0.004835 -0.055170 1.538580 -40.985400 0.000008 0.000006 -8.262620 5.657140 -61.442500 -11.754300 -0.000006 -0.000006 -0.010167 0.272549 -5.500100
0.000000 0.000000 0.000000 0.000000 0.000000 -0.000000 -3.124900 93.913000 0.208688 87.662000 2.312480 -8.038830 15.735700 0.000005 -0.000001 -68.326200 89.020600 69.945700 8.984550 -0.406207 -0.000000 -9.571320 -0.965212 3.168060 16.377300 -0.000001 -0.000001 -9.650030 -0.483802 2.757140 6.456720 -0.000001 -0.000000 0.073136 0.954036 2.615510 12.994200 -0.242716 4.980390 -87.404800 -5.019950 -62.616200 5.348090 -0.000007 -0.000001 -79.867700 -61.984800 -121.043000 24.328600 0.000019 0.000005 0.000043 -18.311300 0.000001 22.291600 -0.000001 0.000005 39.318600 4.604310 14.840500 12.994500 -0.242716 -4.980390 94.585600 -7.881550 -59.676300 -5.348130 -0.000001 -0.000004 -72.392100 -60.167300 -123.036000 -24.328900 0.000322 -0.000009 -0.001059 -18.479200 -0.000103 -22.291500 -0.000108 -0.000004 48.802700 5.385230 -2.463690 -2.192480 -6.469440 -0.000000 -170.843000 -6.060290 -2.700430 39.081100 -0.000007 -0.000012 -0.000001 0.004922 0.000002 40.985400 -0.000006 -0.000013 -11.607900 14.333700 -58.497500 11.754300 -0.000000 0.000003 -0.000268 0.172022 -9.599430 -2.192510 6.469440 -0.000001 -179.168000 11.123800 177.535000 -39.081100 -0.002282 -0.040193 0.004885 -0.054786 1.601650 -40.985400 0.000008 0.000006 -8.192680 5.577510 -61.499500 -11.754300 -0.000006 -0.000006 -0.010067 0.271801 -5.530690
0.000000 0.000000 0.000000 0.000000 0.000000 -0.000000 -3.114560 93.916700 0.166072 87.682100 2.343520 -7.968720 15.735700 0.000005 -0.000001 -67.665600 89.018900 69.276200 8.984550 -0.406207 -0.000000 -9.565840 -0.985933 3.148430 16.377300 -0.000001 -0.000001 -9.655200 -0.509023 2.747260 6.456720 -0.000001 -0.000000 0.037762 0.934409 2.598140 12.994200 -0.242716 4.980390 -87.390800 -5.046220 -62.611800 5.348090 -0.000007 -0.000001 -79.783800 -61.860800 -120.959000 24.328600 0.000019 0.000005 0.000045 -18.373000 0.000001 22.291600 -0.000001 0.000005 39.311000 4.600290 14.909600 12.994500 -0.242716 -4.980390 94.591500 -7.887300 -59.662100 -5.348130 -0.000001 -0.000004 -72.391500 -60.062400 -123.049000 -24.328900 0.000322 -0.000009 -0.001057 -18.431100 -0.000103 -22.291500 -0.000108 -0.000004 48.697200 5.386080 -2.490880 -2.192480 -6.469440 -0.000000 -170.871000 -6.080750 -2.663770 39.081100 -0.000007 -0.000012 -0.000001 0.004457 0.000004 40.985400 -0.000006 -0.000013 -11.543100 14.406100 -58.485100 11.754300 -0.000000 0.000003 -0.000332 0.173036 -9.558270 -2.192510 6.469440 -0.000001 -179.202000 11.140900 177.567000 -39.081100 -0.002282 -0.040193 0.004941 -0.055470 1.639790 -40.985400 0.000008 0.000006 -8.228640 5.554640 -61.530700 -11.754300 -0.000006 -0.000006 -0.010235 0.273052 -5.479530
